<?xml version="1.0" encoding="UTF-8" standalone="no"?>
<svg
   xmlns:dc="http://purl.org/dc/elements/1.1/"
   xmlns:cc="http://creativecommons.org/ns#"
   xmlns:rdf="http://www.w3.org/1999/02/22-rdf-syntax-ns#"
   xmlns:svg="http://www.w3.org/2000/svg"
   xmlns="http://www.w3.org/2000/svg"
   xmlns:sodipodi="http://sodipodi.sourceforge.net/DTD/sodipodi-0.dtd"
   xmlns:inkscape="http://www.inkscape.org/namespaces/inkscape"
   role="img"
   viewBox="0 0 24 24"
   version="1.1"
   id="svg3767"
   sodipodi:docname="facebook.svg"
   inkscape:version="0.92.5 (2060ec1f9f, 2020-04-08)">
  <metadata
     id="metadata3773">
    <rdf:RDF>
      <cc:Work
         rdf:about="">
        <dc:format>image/svg+xml</dc:format>
        <dc:type
           rdf:resource="http://purl.org/dc/dcmitype/StillImage" />
      </cc:Work>
    </rdf:RDF>
  </metadata>
  <defs
     id="defs3771" />
  <sodipodi:namedview
     pagecolor="#ffffff"
     bordercolor="#666666"
     borderopacity="1"
     objecttolerance="10"
     gridtolerance="10"
     guidetolerance="10"
     inkscape:pageopacity="0"
     inkscape:pageshadow="2"
     inkscape:window-width="1498"
     inkscape:window-height="868"
     id="namedview3769"
     showgrid="false"
     inkscape:zoom="9.8333333"
     inkscape:cx="-9.2542373"
     inkscape:cy="12"
     inkscape:window-x="225"
     inkscape:window-y="113"
     inkscape:window-maximized="0"
     inkscape:current-layer="svg3767" />
  <title
     id="title3763">Facebook icon</title>
  <path
     d="M24 12.073c0-6.627-5.373-12-12-12s-12 5.373-12 12c0 5.99 4.388 10.954 10.125 11.854v-8.385H7.078v-3.47h3.047V9.43c0-3.007 1.792-4.669 4.533-4.669 1.312 0 2.686.235 2.686.235v2.953H15.83c-1.491 0-1.956.925-1.956 1.874v2.25h3.328l-.532 3.47h-2.796v8.385C19.612 23.027 24 18.062 24 12.073z"
     id="path3765" />
  <path
     style="fill:#9999ff;stroke-width:0.10169491;fill-opacity:0"
     d="M 8.9298815,23.620533 C 4.7365766,22.495094 1.4410374,19.123886 0.37987764,14.874212 0.06698534,13.621157 -0.0017708,11.353801 0.23330539,10.040732 0.68970313,7.4914226 1.8110162,5.3821169 3.6842478,3.5491525 5.2700068,1.9974812 6.9619667,1.0402382 9.1003549,0.48493657 10.471922,0.12876482 12.458316,0.04691876 13.896112,0.28733538 c 4.943229,0.82656692 8.760001,4.50267492 9.835669,9.47318412 0.238588,1.1024835 0.242423,3.3514495 0.0078,4.5491745 -0.703487,3.590558 -3.072668,6.739127 -6.325994,8.407052 -0.835878,0.42854 -2.372473,0.96597 -3.089837,1.080681 l -0.411845,0.06586 V 19.731642 15.6 h 1.405264 1.405264 l 0.228909,-1.601695 c 0.125899,-0.880932 0.251699,-1.68178 0.279555,-1.779661 0.04678,-0.164397 -0.07854,-0.177966 -1.643708,-0.177966 h -1.694354 l 0.03496,-1.449153 c 0.03121,-1.2939461 0.05964,-1.4888363 0.265375,-1.8196814 0.349489,-0.5620074 0.804898,-0.732641 2.083143,-0.7805165 l 1.093221,-0.040946 V 6.4495978 4.948814 L 16.937288,4.8851215 C 15.874721,4.728534 14.213487,4.6928631 13.600448,4.8134711 11.870239,5.153869 10.752551,6.1608483 10.279913,7.805104 10.184064,8.138551 10.10998,9.0030695 10.075991,10.184746 l -0.05338,1.855932 H 8.5096096 6.9966102 V 13.820339 15.6 h 1.5254237 1.5254241 v 4.118644 c 0,3.857072 -0.0113,4.118253 -0.1779665,4.112475 -0.097881,-0.0034 -0.5207059,-0.09816 -0.93961,-0.210586 z"
     id="path3775"
     inkscape:connector-curvature="0" />
  <path
     style="fill:#9999ff;fill-opacity:0;stroke-width:0.10169491"
     d="M 9.0813559,23.658551 C 5.0750655,22.601205 1.9056591,19.638206 0.64280758,15.769566 0.08251217,14.053148 -0.07978585,11.786125 0.23083455,10.015016 0.76639544,6.9613302 2.5984511,4.0929028 5.1801524,2.2659289 6.1299607,1.5937849 7.7837464,0.83109561 8.979661,0.51367972 c 1.2541,-0.33285927 3.553282,-0.45343231 4.80578,-0.25202333 5.00024,0.80406731 8.946657,4.56595881 9.924424,9.46037751 0.755532,3.7819731 -0.366188,7.6756951 -3.044707,10.5688151 -1.325499,1.431698 -3.611648,2.799187 -5.532955,3.309607 -0.531356,0.141163 -1.023305,0.256773 -1.09322,0.256915 -0.09961,2.03e-4 -0.127119,-0.890559 -0.127119,-4.115518 v -4.115774 l 1.397459,-0.02829 1.397458,-0.02829 0.222661,-1.423729 c 0.122463,-0.783051 0.245814,-1.572458 0.274114,-1.754238 l 0.05145,-0.330508 h -1.681108 -1.681107 l 0.03496,-1.449153 c 0.02977,-1.2342393 0.06566,-1.5014041 0.241947,-1.8014859 0.35562,-0.605332 0.752565,-0.7602386 2.055724,-0.8022374 L 17.36949,7.9712767 V 6.4686764 4.9660835 l -0.279661,-0.061552 c -0.650018,-0.1430664 -3.038133,-0.1899549 -3.607066,-0.070822 -0.822024,0.17213 -1.717882,0.6489634 -2.198158,1.1700021 -0.92368,1.0020739 -1.22785,2.1257737 -1.233601,4.5573054 l -0.0035,1.5 H 8.5220339 6.9966102 v 1.779661 1.779661 h 1.5254237 1.5254241 v 4.118644 c 0,3.230105 -0.02742,4.117436 -0.127119,4.113045 -0.069915,-0.0031 -0.4474576,-0.09014 -0.8389831,-0.193477 z"
     id="path4582"
     inkscape:connector-curvature="0" />
  <path
     style="fill:#9999ff;fill-opacity:0;stroke-width:0.10169491"
     d="M 9.0813559,23.658551 C 5.0750655,22.601205 1.9056591,19.638206 0.64280758,15.769566 0.08251217,14.053148 -0.07978585,11.786125 0.23083455,10.015016 0.76639544,6.9613302 2.5984511,4.0929028 5.1801524,2.2659289 6.1299607,1.5937849 7.7837464,0.83109561 8.979661,0.51367972 c 1.2541,-0.33285927 3.553282,-0.45343231 4.80578,-0.25202333 5.00024,0.80406731 8.946657,4.56595881 9.924424,9.46037751 0.755532,3.7819731 -0.366188,7.6756951 -3.044707,10.5688151 -1.325499,1.431698 -3.611648,2.799187 -5.532955,3.309607 -0.531356,0.141163 -1.023305,0.256773 -1.09322,0.256915 -0.09961,2.03e-4 -0.127119,-0.890559 -0.127119,-4.115518 v -4.115774 l 1.397459,-0.02829 1.397458,-0.02829 0.222661,-1.423729 c 0.122463,-0.783051 0.245814,-1.572458 0.274114,-1.754238 l 0.05145,-0.330508 h -1.681108 -1.681107 l 0.03496,-1.449153 c 0.02977,-1.2342393 0.06566,-1.5014041 0.241947,-1.8014859 0.35562,-0.605332 0.752565,-0.7602386 2.055724,-0.8022374 L 17.36949,7.9712767 V 6.4686764 4.9660835 l -0.279661,-0.061552 c -0.650018,-0.1430664 -3.038133,-0.1899549 -3.607066,-0.070822 -0.822024,0.17213 -1.717882,0.6489634 -2.198158,1.1700021 -0.92368,1.0020739 -1.22785,2.1257737 -1.233601,4.5573054 l -0.0035,1.5 H 8.5220339 6.9966102 v 1.779661 1.779661 h 1.5254237 1.5254241 v 4.118644 c 0,3.230105 -0.02742,4.117436 -0.127119,4.113045 -0.069915,-0.0031 -0.4474576,-0.09014 -0.8389831,-0.193477 z"
     id="path4584"
     inkscape:connector-curvature="0" />
  <path
     style="fill:#9999ff;fill-opacity:0;stroke-width:0.10169491"
     d="M 9.0813559,23.658551 C 5.0750655,22.601205 1.9056591,19.638206 0.64280758,15.769566 0.08251217,14.053148 -0.07978585,11.786125 0.23083455,10.015016 0.76639544,6.9613302 2.5984511,4.0929028 5.1801524,2.2659289 6.1299607,1.5937849 7.7837464,0.83109561 8.979661,0.51367972 c 1.2541,-0.33285927 3.553282,-0.45343231 4.80578,-0.25202333 5.00024,0.80406731 8.946657,4.56595881 9.924424,9.46037751 0.755532,3.7819731 -0.366188,7.6756951 -3.044707,10.5688151 -1.325499,1.431698 -3.611648,2.799187 -5.532955,3.309607 -0.531356,0.141163 -1.023305,0.256773 -1.09322,0.256915 -0.09961,2.03e-4 -0.127119,-0.890559 -0.127119,-4.115518 v -4.115774 l 1.397459,-0.02829 1.397458,-0.02829 0.222661,-1.423729 c 0.122463,-0.783051 0.245814,-1.572458 0.274114,-1.754238 l 0.05145,-0.330508 h -1.681108 -1.681107 l 0.03496,-1.449153 c 0.02977,-1.2342393 0.06566,-1.5014041 0.241947,-1.8014859 0.35562,-0.605332 0.752565,-0.7602386 2.055724,-0.8022374 L 17.36949,7.9712767 V 6.4686764 4.9660835 l -0.279661,-0.061552 c -0.650018,-0.1430664 -3.038133,-0.1899549 -3.607066,-0.070822 -0.822024,0.17213 -1.717882,0.6489634 -2.198158,1.1700021 -0.92368,1.0020739 -1.22785,2.1257737 -1.233601,4.5573054 l -0.0035,1.5 H 8.5220339 6.9966102 v 1.779661 1.779661 h 1.5254237 1.5254241 v 4.118644 c 0,3.230105 -0.02742,4.117436 -0.127119,4.113045 -0.069915,-0.0031 -0.4474576,-0.09014 -0.8389831,-0.193477 z"
     id="path4586"
     inkscape:connector-curvature="0" />
  <path
     style="fill:#9999ff;fill-opacity:0;stroke-width:0.10169491"
     d="M 9.0813559,23.658551 C 5.0750655,22.601205 1.9056591,19.638206 0.64280758,15.769566 0.08251217,14.053148 -0.07978585,11.786125 0.23083455,10.015016 0.76639544,6.9613302 2.5984511,4.0929028 5.1801524,2.2659289 6.1299607,1.5937849 7.7837464,0.83109561 8.979661,0.51367972 c 1.2541,-0.33285927 3.553282,-0.45343231 4.80578,-0.25202333 5.00024,0.80406731 8.946657,4.56595881 9.924424,9.46037751 0.755532,3.7819731 -0.366188,7.6756951 -3.044707,10.5688151 -1.325499,1.431698 -3.611648,2.799187 -5.532955,3.309607 -0.531356,0.141163 -1.023305,0.256773 -1.09322,0.256915 -0.09961,2.03e-4 -0.127119,-0.890559 -0.127119,-4.115518 v -4.115774 l 1.397459,-0.02829 1.397458,-0.02829 0.222661,-1.423729 c 0.122463,-0.783051 0.245814,-1.572458 0.274114,-1.754238 l 0.05145,-0.330508 h -1.681108 -1.681107 l 0.03496,-1.449153 c 0.02977,-1.2342393 0.06566,-1.5014041 0.241947,-1.8014859 0.35562,-0.605332 0.752565,-0.7602386 2.055724,-0.8022374 L 17.36949,7.9712767 V 6.4686764 4.9660835 l -0.279661,-0.061552 c -0.650018,-0.1430664 -3.038133,-0.1899549 -3.607066,-0.070822 -0.822024,0.17213 -1.717882,0.6489634 -2.198158,1.1700021 -0.92368,1.0020739 -1.22785,2.1257737 -1.233601,4.5573054 l -0.0035,1.5 H 8.5220339 6.9966102 v 1.779661 1.779661 h 1.5254237 1.5254241 v 4.118644 c 0,3.230105 -0.02742,4.117436 -0.127119,4.113045 -0.069915,-0.0031 -0.4474576,-0.09014 -0.8389831,-0.193477 z"
     id="path4588"
     inkscape:connector-curvature="0" />
  <path
     style="fill:#9999ff;fill-opacity:1;stroke-width:0.10169491;fill-rule:nonzero"
     d="M 9.0813559,23.658551 C 5.0750655,22.601205 1.9056591,19.638206 0.64280758,15.769566 0.08251217,14.053148 -0.07978585,11.786125 0.23083455,10.015016 0.76639544,6.9613302 2.5984511,4.0929028 5.1801524,2.2659289 6.1299607,1.5937849 7.7837464,0.83109561 8.979661,0.51367972 c 1.2541,-0.33285927 3.553282,-0.45343231 4.80578,-0.25202333 5.00024,0.80406731 8.946657,4.56595881 9.924424,9.46037751 0.755532,3.7819731 -0.366188,7.6756951 -3.044707,10.5688151 -1.325499,1.431698 -3.611648,2.799187 -5.532955,3.309607 -0.531356,0.141163 -1.023305,0.256773 -1.09322,0.256915 -0.09961,2.03e-4 -0.127119,-0.890559 -0.127119,-4.115518 v -4.115774 l 1.397459,-0.02829 1.397458,-0.02829 0.222661,-1.423729 c 0.122463,-0.783051 0.245814,-1.572458 0.274114,-1.754238 l 0.05145,-0.330508 h -1.681108 -1.681107 l 0.03496,-1.449153 c 0.02977,-1.2342393 0.06566,-1.5014041 0.241947,-1.8014859 0.35562,-0.605332 0.752565,-0.7602386 2.055724,-0.8022374 L 17.36949,7.9712767 V 6.4686764 4.9660835 l -0.279661,-0.061552 c -0.650018,-0.1430664 -3.038133,-0.1899549 -3.607066,-0.070822 -0.822024,0.17213 -1.717882,0.6489634 -2.198158,1.1700021 -0.92368,1.0020739 -1.22785,2.1257737 -1.233601,4.5573054 l -0.0035,1.5 H 8.5220339 6.9966102 v 1.779661 1.779661 h 1.5254237 1.5254241 v 4.118644 c 0,3.230105 -0.02742,4.117436 -0.127119,4.113045 -0.069915,-0.0031 -0.4474576,-0.09014 -0.8389831,-0.193477 z"
     id="path4590"
     inkscape:connector-curvature="0" />
</svg>
