<?xml version="1.0" encoding="UTF-8" standalone="no"?>
<svg
   xmlns:dc="http://purl.org/dc/elements/1.1/"
   xmlns:cc="http://creativecommons.org/ns#"
   xmlns:rdf="http://www.w3.org/1999/02/22-rdf-syntax-ns#"
   xmlns:svg="http://www.w3.org/2000/svg"
   xmlns="http://www.w3.org/2000/svg"
   xmlns:sodipodi="http://sodipodi.sourceforge.net/DTD/sodipodi-0.dtd"
   xmlns:inkscape="http://www.inkscape.org/namespaces/inkscape"
   role="img"
   viewBox="0 0 24 24"
   version="1.1"
   id="svg993"
   sodipodi:docname="instagram.svg"
   inkscape:version="0.92.5 (2060ec1f9f, 2020-04-08)">
  <metadata
     id="metadata999">
    <rdf:RDF>
      <cc:Work
         rdf:about="">
        <dc:format>image/svg+xml</dc:format>
        <dc:type
           rdf:resource="http://purl.org/dc/dcmitype/StillImage" />
      </cc:Work>
    </rdf:RDF>
  </metadata>
  <defs
     id="defs997" />
  <sodipodi:namedview
     pagecolor="#ffffff"
     bordercolor="#666666"
     borderopacity="1"
     objecttolerance="10"
     gridtolerance="10"
     guidetolerance="10"
     inkscape:pageopacity="0"
     inkscape:pageshadow="2"
     inkscape:window-width="715"
     inkscape:window-height="480"
     id="namedview995"
     showgrid="false"
     inkscape:zoom="9.8333333"
     inkscape:cx="12"
     inkscape:cy="12"
     inkscape:window-x="376"
     inkscape:window-y="299"
     inkscape:window-maximized="0"
     inkscape:current-layer="svg993" />
  <title
     id="title989">Instagram icon</title>
  <path
     d="M12 0C8.74 0 8.333.015 7.053.072 5.775.132 4.905.333 4.14.63c-.789.306-1.459.717-2.126 1.384S.935 3.35.63 4.14C.333 4.905.131 5.775.072 7.053.012 8.333 0 8.74 0 12s.015 3.667.072 4.947c.06 1.277.261 2.148.558 2.913.306.788.717 1.459 1.384 2.126.667.666 1.336 1.079 2.126 1.384.766.296 1.636.499 2.913.558C8.333 23.988 8.74 24 12 24s3.667-.015 4.947-.072c1.277-.06 2.148-.262 2.913-.558.788-.306 1.459-.718 2.126-1.384.666-.667 1.079-1.335 1.384-2.126.296-.765.499-1.636.558-2.913.06-1.28.072-1.687.072-4.947s-.015-3.667-.072-4.947c-.06-1.277-.262-2.149-.558-2.913-.306-.789-.718-1.459-1.384-2.126C21.319 1.347 20.651.935 19.86.63c-.765-.297-1.636-.499-2.913-.558C15.667.012 15.26 0 12 0zm0 2.16c3.203 0 3.585.016 4.85.071 1.17.055 1.805.249 2.227.415.562.217.96.477 1.382.896.419.42.679.819.896 1.381.164.422.36 1.057.413 2.227.057 1.266.07 1.646.07 4.85s-.015 3.585-.074 4.85c-.061 1.17-.256 1.805-.421 2.227-.224.562-.479.96-.899 1.382-.419.419-.824.679-1.38.896-.42.164-1.065.36-2.235.413-1.274.057-1.649.07-4.859.07-3.211 0-3.586-.015-4.859-.074-1.171-.061-1.816-.256-2.236-.421-.569-.224-.96-.479-1.379-.899-.421-.419-.69-.824-.9-1.38-.165-.42-.359-1.065-.42-2.235-.045-1.26-.061-1.649-.061-4.844 0-3.196.016-3.586.061-4.861.061-1.17.255-1.814.42-2.234.21-.57.479-.96.9-1.381.419-.419.81-.689 1.379-.898.42-.166 1.051-.361 2.221-.421 1.275-.045 1.65-.06 4.859-.06l.045.03zm0 3.678c-3.405 0-6.162 2.76-6.162 6.162 0 3.405 2.76 6.162 6.162 6.162 3.405 0 6.162-2.76 6.162-6.162 0-3.405-2.76-6.162-6.162-6.162zM12 16c-2.21 0-4-1.79-4-4s1.79-4 4-4 4 1.79 4 4-1.79 4-4 4zm7.846-10.405c0 .795-.646 1.44-1.44 1.44-.795 0-1.44-.646-1.44-1.44 0-.794.646-1.439 1.44-1.439.793-.001 1.44.645 1.44 1.439z"
     id="path991" />
  <path
     style="fill:#ccccff;fill-opacity:1;fill-rule:nonzero;stroke:#ccccff;stroke-width:0.10169491;stroke-opacity:0"
     d="M 7.759322,23.891474 C 6.3348555,23.836137 5.6230712,23.762239 5.0506118,23.610256 2.5598339,22.948975 0.9044581,21.217598 0.31862742,18.661017 0.14945267,17.922734 0.13220339,17.306409 0.13220339,12 c 0,-5.3064093 0.0172493,-5.9227339 0.18642403,-6.6610169 C 0.90458817,2.781835 2.5640446,1.0467004 5.0506118,0.3912002 c 1.8638704,-0.491347 12.0140672,-0.48634093 13.8951512,0.006853 2.415882,0.6334111 4.036135,2.2303006 4.637264,4.5704017 0.277171,1.0789768 0.392345,3.1544123 0.393031,7.0823921 7.12e-4,3.876672 -0.112454,5.883145 -0.393597,6.980698 -0.599088,2.338782 -2.221712,3.938058 -4.636698,4.569979 -1.315738,0.344285 -6.397294,0.475997 -11.186441,0.28995 z M 18.082763,21.68057 c 1.973035,-0.456178 3.142817,-1.611106 3.5734,-3.528028 0.105889,-0.471411 0.137057,-1.882113 0.137057,-6.203389 0,-6.0879027 -0.01791,-6.3104567 -0.599475,-7.4500613 C 20.663079,3.4592296 19.495913,2.6298178 18.132203,2.3234984 17.237255,2.1224728 6.4791736,2.1250362 5.6745763,2.3264666 3.8471756,2.7839553 2.7140746,3.9334776 2.3041255,5.7457627 2.1967975,6.2202338 2.1661017,7.6224511 2.1661017,12.050847 c 0,6.196897 0.007,6.284278 0.5966004,7.447799 0.2621957,0.517419 1.1520298,1.425755 1.6479292,1.682194 0.4709643,0.243545 1.4312476,0.496198 2.2202771,0.584159 1.0489004,0.116932 10.8949026,0.04434 11.4518546,-0.08443 z"
     id="path5250"
     inkscape:connector-curvature="0" />
  <path
     style="fill:#ccccff;fill-opacity:1;fill-rule:nonzero;stroke:#ccccff;stroke-width:0.10169491;stroke-opacity:0"
     d="m 17.774685,6.8274819 c -1.019497,-0.5451213 -0.978012,-2.0092624 0.07007,-2.4728772 0.555152,-0.2455703 1.010126,-0.1895479 1.447162,0.1781936 0.786313,0.6616391 0.588844,1.9474969 -0.359959,2.3439319 -0.451471,0.1886368 -0.734932,0.176574 -1.157269,-0.049248 z"
     id="path5252"
     inkscape:connector-curvature="0" />
  <path
     style="fill:#ccccff;fill-opacity:1;fill-rule:nonzero;stroke:#ccccff;stroke-width:0.10169491;stroke-opacity:0"
     d="M 10.594458,17.964161 C 9.5006464,17.685824 8.5417859,17.129696 7.7165477,16.295008 6.8241933,15.392435 6.371994,14.61096 6.0788588,13.464812 c -0.2549983,-0.997033 -0.2549983,-1.932591 0,-2.929624 C 6.3708599,9.3934739 6.8247202,8.6069617 7.7050528,7.7170921 9.025644,6.3821947 10.455466,5.8306896 12.335593,5.9310188 c 1.260494,0.067264 2.046791,0.3257365 3.06728,1.0082805 1.706401,1.1413103 2.678483,2.9779543 2.678483,5.0607007 0,2.090156 -0.971589,3.91906 -2.693948,5.071043 -0.42495,0.284224 -1.079519,0.614925 -1.454598,0.734891 -0.849113,0.271579 -2.571993,0.353238 -3.338352,0.158227 z m 2.108611,-1.999482 c 2.181416,-0.410643 3.64905,-2.502019 3.255327,-4.638835 C 15.637636,9.5850181 14.365112,8.3306601 12.605373,8.0206882 10.933675,7.7262244 9.0863576,8.7209625 8.3513187,10.311399 8.0941988,10.867741 8.0644068,11.04308 8.0644068,12 c 0,0.945668 0.031172,1.134305 0.272548,1.649295 0.5258537,1.121941 1.5668144,1.97433 2.7782992,2.275007 0.648058,0.160841 0.912209,0.167558 1.587815,0.04038 z"
     id="path5254"
     inkscape:connector-curvature="0" />
</svg>
