<?xml version="1.0" encoding="UTF-8" standalone="no"?>
<svg
   xmlns:dc="http://purl.org/dc/elements/1.1/"
   xmlns:cc="http://creativecommons.org/ns#"
   xmlns:rdf="http://www.w3.org/1999/02/22-rdf-syntax-ns#"
   xmlns:svg="http://www.w3.org/2000/svg"
   xmlns="http://www.w3.org/2000/svg"
   xmlns:sodipodi="http://sodipodi.sourceforge.net/DTD/sodipodi-0.dtd"
   xmlns:inkscape="http://www.inkscape.org/namespaces/inkscape"
   role="img"
   viewBox="0 0 24 24"
   version="1.1"
   id="svg891"
   sodipodi:docname="twitter.svg"
   inkscape:version="0.92.5 (2060ec1f9f, 2020-04-08)">
  <metadata
     id="metadata897">
    <rdf:RDF>
      <cc:Work
         rdf:about="">
        <dc:format>image/svg+xml</dc:format>
        <dc:type
           rdf:resource="http://purl.org/dc/dcmitype/StillImage" />
      </cc:Work>
    </rdf:RDF>
  </metadata>
  <defs
     id="defs895" />
  <sodipodi:namedview
     pagecolor="#ffffff"
     bordercolor="#666666"
     borderopacity="1"
     objecttolerance="10"
     gridtolerance="10"
     guidetolerance="10"
     inkscape:pageopacity="0"
     inkscape:pageshadow="2"
     inkscape:window-width="640"
     inkscape:window-height="480"
     id="namedview893"
     showgrid="false"
     inkscape:zoom="9.8333333"
     inkscape:cx="12"
     inkscape:cy="12"
     inkscape:window-x="445"
     inkscape:window-y="296"
     inkscape:window-maximized="0"
     inkscape:current-layer="svg891" />
  <title
     id="title887">Twitter icon</title>
  <path
     d="M23.953 4.57a10 10 0 01-2.825.775 4.958 4.958 0 002.163-2.723c-.951.555-2.005.959-3.127 1.184a4.92 4.92 0 00-8.384 4.482C7.69 8.095 4.067 6.13 1.64 3.162a4.822 4.822 0 00-.666 2.475c0 1.71.87 3.213 2.188 4.096a4.904 4.904 0 01-2.228-.616v.06a4.923 4.923 0 003.946 4.827 4.996 4.996 0 01-2.212.085 4.936 4.936 0 004.604 3.417 9.867 9.867 0 01-6.102 2.105c-.39 0-.779-.023-1.17-.067a13.995 13.995 0 007.557 2.209c9.053 0 13.998-7.496 13.998-13.985 0-.21 0-.42-.015-.63A9.935 9.935 0 0024 4.59z"
     id="path889" />
  <path
     style="fill:#ccccff;fill-opacity:1;fill-rule:nonzero;stroke:#ccccff;stroke-width:0.10169491;stroke-opacity:0"
     d="M 6.5389831,21.649047 C 4.697964,21.535328 3.1576429,21.117668 1.4033898,20.256524 L 0.23389831,19.682433 1.5559322,19.612752 c 1.498214,-0.07897 2.5340123,-0.319761 3.7088262,-0.862198 0.6606877,-0.305054 2.0369365,-1.12322 2.0369365,-1.210938 0,-0.01634 -0.3235317,-0.08428 -0.7189594,-0.150982 -1.633967,-0.275605 -3.1941189,-1.506291 -3.7371468,-2.947956 l -0.095763,-0.254237 0.8776295,-0.0052 c 0.4826962,-0.0028 0.9604816,-0.05198 1.0617453,-0.109178 0.157877,-0.08917 0.1216451,-0.122659 -0.2542372,-0.234959 C 2.9167477,13.383528 1.6749264,12.14081 1.1984992,10.598318 1.0308648,10.055581 0.92563302,9.2540941 1.0220339,9.2542885 1.0360169,9.2543168 1.2820928,9.3435206 1.5688691,9.4525193 1.8556455,9.561518 2.336154,9.6832876 2.6366657,9.7231186 L 3.1830508,9.7955384 2.558917,9.1809019 C 1.079984,7.724474 0.61933443,5.5409915 1.404545,3.7091696 l 0.2128994,-0.4966742 0.5600665,0.628743 c 1.0519622,1.1809557 2.976564,2.5647847 4.5470138,3.2693978 1.2561235,0.5635844 2.9406692,1.0089562 4.4455223,1.1753382 l 0.563268,0.062277 0.0056,-1.0978544 c 0.0043,-0.8520626 0.05345,-1.2287406 0.219346,-1.6824707 1.00246,-2.7417797 4.081532,-4.0227761 6.690849,-2.7836163 0.401311,0.1905812 0.911267,0.5105868 1.133238,0.7111237 l 0.403582,0.3646126 0.745959,-0.2067158 c 0.410277,-0.1136937 1.080816,-0.3614297 1.490087,-0.5505245 0.409275,-0.1890949 0.744133,-0.3234065 0.744133,-0.2984702 0,0.024936 -0.09979,0.2622128 -0.221763,0.5272811 -0.129718,0.2819055 -0.550465,0.8090696 -1.013692,1.2700782 -0.435561,0.4334746 -0.773505,0.7881356 -0.750988,0.7881356 0.190909,0 1.548542,-0.3370874 2.028553,-0.5036702 0.330787,-0.1147965 0.616226,-0.1939254 0.634309,-0.1758419 0.07909,0.079085 -1.134829,1.4263412 -1.684787,1.8698502 -0.597666,0.481982 -0.604749,0.4938562 -0.611709,1.0255345 -0.0502,3.8344887 -1.575018,7.4988677 -4.221795,10.1456457 -2.855092,2.855091 -6.476525,4.163847 -10.7852469,3.897698 z"
     id="path1445"
     inkscape:connector-curvature="0" />
</svg>
