<?xml version="1.0" encoding="UTF-8" standalone="no"?>
<svg
   xmlns:dc="http://purl.org/dc/elements/1.1/"
   xmlns:cc="http://creativecommons.org/ns#"
   xmlns:rdf="http://www.w3.org/1999/02/22-rdf-syntax-ns#"
   xmlns:svg="http://www.w3.org/2000/svg"
   xmlns="http://www.w3.org/2000/svg"
   xmlns:sodipodi="http://sodipodi.sourceforge.net/DTD/sodipodi-0.dtd"
   xmlns:inkscape="http://www.inkscape.org/namespaces/inkscape"
   role="img"
   viewBox="0 0 24 24"
   version="1.1"
   id="svg6"
   sodipodi:docname="facebook.svg"
   inkscape:version="0.92.5 (2060ec1f9f, 2020-04-08)">
  <metadata
     id="metadata12">
    <rdf:RDF>
      <cc:Work
         rdf:about="">
        <dc:format>image/svg+xml</dc:format>
        <dc:type
           rdf:resource="http://purl.org/dc/dcmitype/StillImage" />
      </cc:Work>
    </rdf:RDF>
  </metadata>
  <defs
     id="defs10" />
  <sodipodi:namedview
     pagecolor="#ffffff"
     bordercolor="#666666"
     borderopacity="1"
     objecttolerance="10"
     gridtolerance="10"
     guidetolerance="10"
     inkscape:pageopacity="0"
     inkscape:pageshadow="2"
     inkscape:window-width="850"
     inkscape:window-height="697"
     id="namedview8"
     showgrid="false"
     inkscape:zoom="9.8333333"
     inkscape:cx="12"
     inkscape:cy="12"
     inkscape:window-x="136"
     inkscape:window-y="134"
     inkscape:window-maximized="0"
     inkscape:current-layer="svg6" />
  <title
     id="title2">Facebook icon</title>
  <path
     d="M24 12.073c0-6.627-5.373-12-12-12s-12 5.373-12 12c0 5.99 4.388 10.954 10.125 11.854v-8.385H7.078v-3.47h3.047V9.43c0-3.007 1.792-4.669 4.533-4.669 1.312 0 2.686.235 2.686.235v2.953H15.83c-1.491 0-1.956.925-1.956 1.874v2.25h3.328l-.532 3.47h-2.796v8.385C19.612 23.027 24 18.062 24 12.073z"
     id="path4" />
  <path
     style="opacity:1;fill:#a9f2ff;fill-opacity:0.14509805;fill-rule:evenodd;stroke:#ccccff;stroke-width:0.10169491;stroke-opacity:1"
     d="M 8.8169492,23.594109 C 6.0254126,22.811649 3.52837,20.969191 1.9484809,18.526165 -0.58816721,14.603679 -0.57783799,9.5055972 1.9747374,5.5669929 3.6180976,3.0313008 6.2249903,1.1797033 9.1934836,0.43973464 10.431555,0.1311154 12.597353,0.06336553 13.957044,0.29072224 18.942525,1.124354 22.906466,5.0427268 23.769216,9.9900937 c 0.171552,0.9837523 0.195422,3.0289223 0.04609,3.9490063 -0.404722,2.493638 -1.595705,4.802426 -3.401039,6.593103 -1.001162,0.993035 -1.887444,1.628601 -3.15664,2.263675 -0.842992,0.421811 -2.199062,0.890545 -2.901232,1.002826 l -0.403853,0.06458 V 19.731642 15.6 h 1.368274 1.368272 l 0.05653,-0.330508 c 0.163406,-0.95537 0.46116,-2.940512 0.46116,-3.07459 0,-0.131438 -0.241479,-0.154224 -1.634446,-0.154224 h -1.634445 l 0.03275,-1.518368 C 13.99987,9.1671407 14.026393,8.9731251 14.21741,8.7172254 14.630396,8.1639591 15.0121,8.0282162 16.268757,7.9877175 L 17.41548,7.9507615 17.3874,6.4634315 17.35932,4.9761014 16.95254,4.9042234 C 16.728814,4.8646911 16.063104,4.8004474 15.473189,4.7614601 12.776385,4.5832289 11.122535,5.4847858 10.371731,7.5423988 10.191739,8.0356733 10.151877,8.4267795 10.112777,10.083051 l -0.04621,1.957627 H 8.551926 7.0372881 V 13.820339 15.6 h 1.5254238 1.5254241 v 4.118644 4.118644 l -0.228814,-0.0076 C 9.7334746,23.825563 9.2644068,23.719534 8.8169492,23.594113 Z"
     id="path822"
     inkscape:connector-curvature="0" />
  <path
     style="opacity:1;fill:#a9f2ff;fill-opacity:1;fill-rule:evenodd;stroke:#ccccff;stroke-width:0.10169491;stroke-opacity:1"
     d="M 8.9694915,23.53788 C 6.6357555,22.883052 4.5365835,21.559783 3.003527,19.777075 -0.93791646,15.193784 -0.77685572,8.3365992 3.3749199,3.9649676 4.8889398,2.3707732 6.9547808,1.1351946 9.0317237,0.58163564 9.948421,0.33731215 10.208047,0.31343988 11.969492,0.31151212 c 1.770696,-0.001938 2.015455,0.0202613 2.928199,0.26558172 4.449324,1.19585566 7.706167,4.58169086 8.728066,9.07375366 0.09218,0.4052025 0.137199,1.2592315 0.134021,2.5423725 -0.0041,1.662527 -0.03566,2.043341 -0.22597,2.728492 -0.332177,1.195885 -0.868159,2.43652 -1.467942,3.397841 -0.629127,1.008355 -2.05105,2.556821 -3.001467,3.268581 -1.211839,0.907538 -3.358097,1.88878 -4.577958,2.092985 l -0.432204,0.07235 v -4.025888 -4.025888 h 1.372882 c 1.02935,0 1.373424,-0.03181 1.375052,-0.127119 0.0012,-0.06991 0.11489,-0.859322 0.252656,-1.754237 0.233202,-1.514846 0.238728,-1.63589 0.08009,-1.754237 -0.117881,-0.08794 -0.622363,-0.127119 -1.636846,-0.127119 h -1.466449 l 0.03981,-1.449152 c 0.05808,-2.1141389 0.23488,-2.3057965 2.220094,-2.4066747 l 1.169492,-0.059427 0.03343,-0.6101695 c 0.01839,-0.3355932 0.0028,-1.031704 -0.03462,-1.5469131 C 17.405677,5.1212198 17.357309,4.9192908 17.223008,4.8779439 17.130184,4.8493666 16.533665,4.7775563 15.897411,4.7183656 13.113377,4.4593672 11.357057,5.2342186 10.48002,7.108404 10.228238,7.6464514 10.161794,7.9568981 10.084341,8.9571778 10.033145,9.6183572 9.9901736,10.559746 9.988849,11.049153 l -0.00241,0.88983 H 8.4610169 6.9355932 v 1.881356 1.881356 h 1.5254237 1.5254238 v 4.016949 c 0,4.581265 0.1181023,4.137722 -1.0169492,3.819236 z"
     id="path890"
     inkscape:connector-curvature="0" />
</svg>
