<?xml version="1.0" encoding="UTF-8" standalone="no"?>
<svg
   xmlns:dc="http://purl.org/dc/elements/1.1/"
   xmlns:cc="http://creativecommons.org/ns#"
   xmlns:rdf="http://www.w3.org/1999/02/22-rdf-syntax-ns#"
   xmlns:svg="http://www.w3.org/2000/svg"
   xmlns="http://www.w3.org/2000/svg"
   xmlns:sodipodi="http://sodipodi.sourceforge.net/DTD/sodipodi-0.dtd"
   xmlns:inkscape="http://www.inkscape.org/namespaces/inkscape"
   role="img"
   viewBox="0 0 24 24"
   version="1.1"
   id="svg6"
   sodipodi:docname="github.svg"
   inkscape:version="0.92.5 (2060ec1f9f, 2020-04-08)">
  <metadata
     id="metadata12">
    <rdf:RDF>
      <cc:Work
         rdf:about="">
        <dc:format>image/svg+xml</dc:format>
        <dc:type
           rdf:resource="http://purl.org/dc/dcmitype/StillImage" />
      </cc:Work>
    </rdf:RDF>
  </metadata>
  <defs
     id="defs10" />
  <sodipodi:namedview
     pagecolor="#ffffff"
     bordercolor="#666666"
     borderopacity="1"
     objecttolerance="10"
     gridtolerance="10"
     guidetolerance="10"
     inkscape:pageopacity="0"
     inkscape:pageshadow="2"
     inkscape:window-width="852"
     inkscape:window-height="480"
     id="namedview8"
     showgrid="false"
     inkscape:zoom="9.8333333"
     inkscape:cx="12"
     inkscape:cy="12"
     inkscape:window-x="0"
     inkscape:window-y="27"
     inkscape:window-maximized="0"
     inkscape:current-layer="svg6" />
  <title
     id="title2">GitHub icon</title>
  <path
     d="M12 .297c-6.63 0-12 5.373-12 12 0 5.303 3.438 9.8 8.205 11.385.6.113.82-.258.82-.577 0-.285-.01-1.04-.015-2.04-3.338.724-4.042-1.61-4.042-1.61C4.422 18.07 3.633 17.7 3.633 17.7c-1.087-.744.084-.729.084-.729 1.205.084 1.838 1.236 1.838 1.236 1.07 1.835 2.809 1.305 3.495.998.108-.776.417-1.305.76-1.605-2.665-.3-5.466-1.332-5.466-5.93 0-1.31.465-2.38 1.235-3.22-.135-.303-.54-1.523.105-3.176 0 0 1.005-.322 3.3 1.23.96-.267 1.98-.399 3-.405 1.02.006 2.04.138 3 .405 2.28-1.552 3.285-1.23 3.285-1.23.645 1.653.24 2.873.12 3.176.765.84 1.23 1.91 1.23 3.22 0 4.61-2.805 5.625-5.475 5.92.42.36.81 1.096.81 2.22 0 1.606-.015 2.896-.015 3.286 0 .315.21.69.825.57C20.565 22.092 24 17.592 24 12.297c0-6.627-5.373-12-12-12"
     id="path4" />
  <path
     style="opacity:1;fill:#a9f2ff;fill-opacity:1;fill-rule:evenodd;stroke:#ccccff;stroke-width:0.10169491;stroke-opacity:1"
     d="M 7.4818591,23.356209 C 3.7767648,21.853383 1.0409043,18.527043 0.25871667,14.574101 0.01903498,13.362821 0.02153249,11.131693 0.26385162,9.9868404 1.3789971,4.7182636 5.5551054,0.95761231 10.913636,0.39654195 c 1.850221,-0.19372928 4.004302,0.14920917 5.805095,0.92419485 3.464962,1.4911741 5.973792,4.4663761 6.918013,8.204018 0.196305,0.7770682 0.226669,1.1609922 0.223901,2.8311772 -0.0029,1.768746 -0.02612,2.016833 -0.274078,2.932598 -0.307467,1.135528 -1.061563,2.785597 -1.70824,3.737872 -0.571975,0.842271 -1.888128,2.207011 -2.730479,2.831281 -1.159558,0.85935 -2.966475,1.740706 -3.605998,1.75889 -0.531753,0.01512 -0.572358,-0.156318 -0.572358,-2.416458 0,-2.164972 -0.0804,-2.700639 -0.492161,-3.278899 l -0.211414,-0.296903 0.733143,-0.129437 c 2.591997,-0.457617 4.019002,-1.778076 4.500962,-4.164907 0.344065,-1.70392 0.06906,-3.3949904 -0.720243,-4.4290403 C 18.474842,8.5014394 18.448241,8.416534 18.534157,8.1169613 18.686714,7.5850257 18.640412,6.3093462 18.448091,5.7457627 l -0.173515,-0.5084746 -0.47504,0.023854 c -0.588883,0.02957 -1.384207,0.3213237 -2.175154,0.7979242 L 15.020339,6.4230442 13.963071,6.249809 C 12.763794,6.0533056 10.526982,6.0844406 9.6061016,6.3104553 L 9.0732201,6.441242 8.0298304,5.9116687 C 7.4559661,5.6204034 6.7188427,5.3276901 6.3917785,5.2611947 5.8507579,5.1511998 5.7847943,5.1571453 5.660516,5.327106 5.3449507,5.7586674 5.2042989,7.2988356 5.4121253,8.0470393 5.5055093,8.3832346 5.4835095,8.4623747 5.1651655,8.935432 4.5116757,9.9065138 4.3534217,10.476249 4.3562991,11.847458 c 0.00383,1.823952 0.3865892,3.009756 1.286718,3.986281 0.8011987,0.869197 1.9333783,1.441661 3.2964031,1.66676 l 0.7175137,0.118495 -0.2928737,0.556762 c -0.1610806,0.306219 -0.2928738,0.645976 -0.2928738,0.755014 0,0.281069 -0.6060433,0.507566 -1.3699017,0.511973 -0.9784321,0.0056 -1.4752696,-0.316022 -2.2911152,-1.483332 -0.4015086,-0.574479 -0.9443559,-0.902759 -1.5799697,-0.955469 -0.4541455,-0.03766 -0.5643107,-0.01489 -0.6191392,0.127993 -0.048995,0.12768 0.1066577,0.330265 0.5865038,0.763344 0.4914717,0.44357 0.7444652,0.77661 1.0218106,1.345107 0.4854711,0.995109 0.7861376,1.334815 1.4852932,1.678147 0.5215901,0.256135 0.685177,0.284732 1.6224504,0.283621 l 1.0423729,-0.0012 v 1.088689 c 0,1.009738 -0.016391,1.100171 -0.2260175,1.247 -0.2981328,0.20882 -0.3041559,0.207959 -1.2616149,-0.180398 z"
     id="path822"
     inkscape:connector-curvature="0" />
</svg>
