<?xml version="1.0" encoding="UTF-8" standalone="no"?>
<svg
   xmlns:dc="http://purl.org/dc/elements/1.1/"
   xmlns:cc="http://creativecommons.org/ns#"
   xmlns:rdf="http://www.w3.org/1999/02/22-rdf-syntax-ns#"
   xmlns:svg="http://www.w3.org/2000/svg"
   xmlns="http://www.w3.org/2000/svg"
   xmlns:sodipodi="http://sodipodi.sourceforge.net/DTD/sodipodi-0.dtd"
   xmlns:inkscape="http://www.inkscape.org/namespaces/inkscape"
   role="img"
   viewBox="0 0 24 24"
   version="1.1"
   id="svg6"
   sodipodi:docname="instagram.svg"
   inkscape:version="0.92.5 (2060ec1f9f, 2020-04-08)">
  <metadata
     id="metadata12">
    <rdf:RDF>
      <cc:Work
         rdf:about="">
        <dc:format>image/svg+xml</dc:format>
        <dc:type
           rdf:resource="http://purl.org/dc/dcmitype/StillImage" />
      </cc:Work>
    </rdf:RDF>
  </metadata>
  <defs
     id="defs10" />
  <sodipodi:namedview
     pagecolor="#ffffff"
     bordercolor="#666666"
     borderopacity="1"
     objecttolerance="10"
     gridtolerance="10"
     guidetolerance="10"
     inkscape:pageopacity="0"
     inkscape:pageshadow="2"
     inkscape:window-width="852"
     inkscape:window-height="480"
     id="namedview8"
     showgrid="false"
     inkscape:zoom="9.8333333"
     inkscape:cx="12"
     inkscape:cy="12"
     inkscape:window-x="0"
     inkscape:window-y="27"
     inkscape:window-maximized="0"
     inkscape:current-layer="svg6" />
  <title
     id="title2">Instagram icon</title>
  <path
     d="M12 0C8.74 0 8.333.015 7.053.072 5.775.132 4.905.333 4.14.63c-.789.306-1.459.717-2.126 1.384S.935 3.35.63 4.14C.333 4.905.131 5.775.072 7.053.012 8.333 0 8.74 0 12s.015 3.667.072 4.947c.06 1.277.261 2.148.558 2.913.306.788.717 1.459 1.384 2.126.667.666 1.336 1.079 2.126 1.384.766.296 1.636.499 2.913.558C8.333 23.988 8.74 24 12 24s3.667-.015 4.947-.072c1.277-.06 2.148-.262 2.913-.558.788-.306 1.459-.718 2.126-1.384.666-.667 1.079-1.335 1.384-2.126.296-.765.499-1.636.558-2.913.06-1.28.072-1.687.072-4.947s-.015-3.667-.072-4.947c-.06-1.277-.262-2.149-.558-2.913-.306-.789-.718-1.459-1.384-2.126C21.319 1.347 20.651.935 19.86.63c-.765-.297-1.636-.499-2.913-.558C15.667.012 15.26 0 12 0zm0 2.16c3.203 0 3.585.016 4.85.071 1.17.055 1.805.249 2.227.415.562.217.96.477 1.382.896.419.42.679.819.896 1.381.164.422.36 1.057.413 2.227.057 1.266.07 1.646.07 4.85s-.015 3.585-.074 4.85c-.061 1.17-.256 1.805-.421 2.227-.224.562-.479.96-.899 1.382-.419.419-.824.679-1.38.896-.42.164-1.065.36-2.235.413-1.274.057-1.649.07-4.859.07-3.211 0-3.586-.015-4.859-.074-1.171-.061-1.816-.256-2.236-.421-.569-.224-.96-.479-1.379-.899-.421-.419-.69-.824-.9-1.38-.165-.42-.359-1.065-.42-2.235-.045-1.26-.061-1.649-.061-4.844 0-3.196.016-3.586.061-4.861.061-1.17.255-1.814.42-2.234.21-.57.479-.96.9-1.381.419-.419.81-.689 1.379-.898.42-.166 1.051-.361 2.221-.421 1.275-.045 1.65-.06 4.859-.06l.045.03zm0 3.678c-3.405 0-6.162 2.76-6.162 6.162 0 3.405 2.76 6.162 6.162 6.162 3.405 0 6.162-2.76 6.162-6.162 0-3.405-2.76-6.162-6.162-6.162zM12 16c-2.21 0-4-1.79-4-4s1.79-4 4-4 4 1.79 4 4-1.79 4-4 4zm7.846-10.405c0 .795-.646 1.44-1.44 1.44-.795 0-1.44-.646-1.44-1.44 0-.794.646-1.439 1.44-1.439.793-.001 1.44.645 1.44 1.439z"
     id="path4" />
  <path
     style="opacity:1;fill:#a9f2ff;fill-opacity:1;fill-rule:evenodd;stroke:#ccccff;stroke-width:0.10169491;stroke-opacity:1"
     d="M 10.426174,17.899211 C 9.5609121,17.672408 9.2307166,17.513225 8.3880934,16.916682 7.2721898,16.126667 6.3021656,14.656248 6.0302008,13.342452 5.8877133,12.654129 5.887005,11.351319 6.0287411,10.657548 6.18386,9.8982709 6.8487355,8.5868078 7.3949822,7.9626448 7.9802572,7.2938869 9.1627878,6.4987538 10.000879,6.2104413 c 0.825659,-0.2840359 2.292078,-0.3845066 3.156857,-0.2162899 0.353245,0.068713 1.024659,0.3033767 1.49203,0.5214743 0.684039,0.3192052 1.002037,0.5505494 1.63054,1.1862204 0.895657,0.9058721 1.347357,1.6858533 1.640836,2.8333419 0.366951,1.434764 0.176443,2.99487 -0.530478,4.344197 -0.475613,0.907823 -1.674715,2.083813 -2.598776,2.548687 -1.362238,0.685311 -2.911,0.85245 -4.365714,0.471139 z m 2.326448,-1.945848 c 1.252965,-0.26606 2.36989,-1.142943 2.898276,-2.275397 0.25498,-0.546483 0.284695,-0.72162 0.284695,-1.677966 0,-0.95692 -0.02979,-1.132259 -0.286912,-1.688601 C 14.913642,8.7209625 13.066325,7.7262244 11.394627,8.0206882 9.1484543,8.4163438 7.6624469,10.448025 8.0340846,12.615248 c 0.2276285,1.327427 1.0200178,2.418839 2.1616504,2.977388 0.903393,0.441989 1.666919,0.549707 2.556887,0.360727 z"
     id="path822"
     inkscape:connector-curvature="0" />
  <path
     style="opacity:1;fill:#a9f2ff;fill-opacity:1;fill-rule:evenodd;stroke:#ccccff;stroke-width:0.10169491;stroke-opacity:1"
     d="M 7.7491525,23.89258 C 4.5714044,23.768992 3.1107734,23.199204 1.6524894,21.514288 0.22407963,19.86389 -0.04607784,18.017047 0.05246825,10.576271 0.10178747,6.8523974 0.13270232,6.2422836 0.31526843,5.3898305 0.80565335,3.1000841 2.1887456,1.4252645 4.2170031,0.66512634 5.3974252,0.22273485 6.3360857,0.12292387 9.9864407,0.05164237 14.233337,-0.031288 17.846518,0.10643064 18.947571,0.39320142 20.211064,0.7222804 21.024835,1.1752729 21.894971,2.0338983 22.76778,2.8951607 23.253678,3.7602269 23.63716,5.1355932 23.860156,5.9353764 23.863998,6.0516124 23.863998,12 c 0,5.948388 -0.0038,6.064624 -0.226838,6.864407 -0.706049,2.532259 -2.262109,4.106822 -4.687772,4.74351 -1.273584,0.334292 -6.505239,0.467258 -11.2002355,0.284663 z M 18.315959,21.622385 c 1.379967,-0.359722 2.421006,-1.157396 2.912564,-2.231692 0.581748,-1.271405 0.599818,-1.489941 0.602711,-7.288998 C 21.8342,6.1580647 21.801151,5.758193 21.209127,4.5748092 20.638496,3.4341843 19.73222,2.7488882 18.297215,2.3729169 17.365304,2.1287563 7.3989099,2.0448158 6.0932585,2.2701309 3.9724625,2.6361147 2.7476675,3.779797 2.2805456,5.8303445 2.1381825,6.4552831 2.114482,7.3285538 2.114482,11.949153 c 0,5.857742 0.027157,6.199361 0.5906726,7.430241 0.4521963,0.987727 1.5358702,1.86511 2.6862233,2.174868 0.9090902,0.244793 2.1531317,0.290957 7.1374361,0.264857 4.409891,-0.02309 5.227662,-0.05089 5.787145,-0.196734 z"
     id="path824"
     inkscape:connector-curvature="0" />
  <path
     style="opacity:1;fill:#a9f2ff;fill-opacity:1;fill-rule:evenodd;stroke:#ccccff;stroke-width:0.10169491;stroke-opacity:1"
     d="m 17.824178,6.8437151 c -1.318803,-0.6909685 -0.88286,-2.6377706 0.585901,-2.6164713 0.809256,0.011735 1.366808,0.5689484 1.366808,1.3659765 0,1.0251943 -1.072204,1.7118228 -1.952709,1.2504948 z"
     id="path826"
     inkscape:connector-curvature="0" />
</svg>
