<?xml version="1.0" encoding="UTF-8" standalone="no"?>
<svg
   xmlns:dc="http://purl.org/dc/elements/1.1/"
   xmlns:cc="http://creativecommons.org/ns#"
   xmlns:rdf="http://www.w3.org/1999/02/22-rdf-syntax-ns#"
   xmlns:svg="http://www.w3.org/2000/svg"
   xmlns="http://www.w3.org/2000/svg"
   xmlns:sodipodi="http://sodipodi.sourceforge.net/DTD/sodipodi-0.dtd"
   xmlns:inkscape="http://www.inkscape.org/namespaces/inkscape"
   role="img"
   viewBox="0 0 24 24"
   version="1.1"
   id="svg6"
   sodipodi:docname="linkedin.svg"
   inkscape:version="0.92.5 (2060ec1f9f, 2020-04-08)">
  <metadata
     id="metadata12">
    <rdf:RDF>
      <cc:Work
         rdf:about="">
        <dc:format>image/svg+xml</dc:format>
        <dc:type
           rdf:resource="http://purl.org/dc/dcmitype/StillImage" />
      </cc:Work>
    </rdf:RDF>
  </metadata>
  <defs
     id="defs10" />
  <sodipodi:namedview
     pagecolor="#ffffff"
     bordercolor="#666666"
     borderopacity="1"
     objecttolerance="10"
     gridtolerance="10"
     guidetolerance="10"
     inkscape:pageopacity="0"
     inkscape:pageshadow="2"
     inkscape:window-width="852"
     inkscape:window-height="480"
     id="namedview8"
     showgrid="false"
     inkscape:zoom="9.8333333"
     inkscape:cx="12"
     inkscape:cy="12"
     inkscape:window-x="0"
     inkscape:window-y="27"
     inkscape:window-maximized="0"
     inkscape:current-layer="svg6" />
  <title
     id="title2">LinkedIn icon</title>
  <path
     d="M20.447 20.452h-3.554v-5.569c0-1.328-.027-3.037-1.852-3.037-1.853 0-2.136 1.445-2.136 2.939v5.667H9.351V9h3.414v1.561h.046c.477-.9 1.637-1.85 3.37-1.85 3.601 0 4.267 2.37 4.267 5.455v6.286zM5.337 7.433c-1.144 0-2.063-.926-2.063-2.065 0-1.138.92-2.063 2.063-2.063 1.14 0 2.064.925 2.064 2.063 0 1.139-.925 2.065-2.064 2.065zm1.782 13.019H3.555V9h3.564v11.452zM22.225 0H1.771C.792 0 0 .774 0 1.729v20.542C0 23.227.792 24 1.771 24h20.451C23.2 24 24 23.227 24 22.271V1.729C24 .774 23.2 0 22.222 0h.003z"
     id="path4" />
  <path
     style="opacity:1;fill:#a9f2ff;fill-opacity:1;fill-rule:evenodd;stroke:#ccccff;stroke-width:0.10169491;stroke-opacity:1"
     d="M 1.2085224,23.853629 C 0.70126436,23.671455 0.44030956,23.430262 0.21159977,22.932203 0.03416113,22.545796 0.02480583,21.998273 0.02480583,12 0.02480583,1.9711878 0.03369397,1.4550064 0.21318624,1.0598035 0.43742753,0.56607291 0.82036269,0.24225766 1.3480168,0.10017516 1.6021227,0.03175154 5.3046242,0.00558903 12.190673,0.02355909 c 9.986298,0.02606057 10.474033,0.03585978 10.840143,0.2177921 0.210848,0.10477705 0.485424,0.33359061 0.610169,0.50847458 L 23.867797,1.0677966 V 12 22.932203 l -0.226812,0.317971 c -0.124745,0.174885 -0.399321,0.403698 -0.610169,0.508474 -0.366385,0.18207 -0.84937,0.191476 -10.908782,0.212431 C 3.4229913,23.9892 1.5292688,23.96882 1.2085224,23.853629 Z M 7.114399,14.720339 7.1406624,8.9491525 H 5.3093143 3.4779661 v 5.7288135 c 0,3.150848 0.031552,5.760366 0.070115,5.798929 0.038563,0.03856 0.8508515,0.05763 1.8050847,0.04237 l 1.7349695,-0.02774 z m 5.822478,2.262712 c 0.05596,-3.766457 0.08361,-3.966294 0.629062,-4.546901 0.52636,-0.560283 1.899697,-0.707628 2.50099,-0.268328 0.701298,0.512361 0.816611,1.286074 0.827538,5.552517 l 0.0072,2.822034 h 1.786629 1.786629 L 20.438373,16.29661 C 20.404039,12.311726 20.388715,12.012017 20.188964,11.418895 19.617372,9.72166 18.752934,8.9854323 17.031022,8.7293299 15.576366,8.5129767 14.158383,8.9481867 13.288723,9.8779237 L 12.833898,10.364168 V 9.6566602 8.9491525 H 11.054237 9.2745763 v 5.7288135 c 0,3.150848 0.031552,5.760366 0.070115,5.798929 0.038563,0.03856 0.8508517,0.05763 1.8050857,0.04237 l 1.734969,-0.02774 z M 6.52234,7.0841516 C 6.9950757,6.7713099 7.4417627,5.9735002 7.4425072,5.440678 7.4441822,4.24196 6.4572164,3.2570052 5.2521706,3.2548044 4.7513401,3.2538892 3.9059207,3.7350752 3.6023208,4.1938455 3.2328604,4.7521378 3.1667124,5.6958113 3.4573076,6.2626176 3.8807993,7.0886388 4.4861157,7.4383432 5.4214083,7.3973211 5.9558105,7.3738821 6.1815689,7.3096631 6.52234,7.0841516 Z"
     id="path822"
     inkscape:connector-curvature="0" />
</svg>
