<?xml version="1.0" encoding="UTF-8" standalone="no"?>
<svg
   xmlns:dc="http://purl.org/dc/elements/1.1/"
   xmlns:cc="http://creativecommons.org/ns#"
   xmlns:rdf="http://www.w3.org/1999/02/22-rdf-syntax-ns#"
   xmlns:svg="http://www.w3.org/2000/svg"
   xmlns="http://www.w3.org/2000/svg"
   xmlns:sodipodi="http://sodipodi.sourceforge.net/DTD/sodipodi-0.dtd"
   xmlns:inkscape="http://www.inkscape.org/namespaces/inkscape"
   role="img"
   viewBox="0 0 24 24"
   version="1.1"
   id="svg6"
   sodipodi:docname="twitter.svg"
   inkscape:version="0.92.5 (2060ec1f9f, 2020-04-08)">
  <metadata
     id="metadata12">
    <rdf:RDF>
      <cc:Work
         rdf:about="">
        <dc:format>image/svg+xml</dc:format>
        <dc:type
           rdf:resource="http://purl.org/dc/dcmitype/StillImage" />
      </cc:Work>
    </rdf:RDF>
  </metadata>
  <defs
     id="defs10" />
  <sodipodi:namedview
     pagecolor="#ffffff"
     bordercolor="#666666"
     borderopacity="1"
     objecttolerance="10"
     gridtolerance="10"
     guidetolerance="10"
     inkscape:pageopacity="0"
     inkscape:pageshadow="2"
     inkscape:window-width="852"
     inkscape:window-height="480"
     id="namedview8"
     showgrid="false"
     inkscape:zoom="9.8333333"
     inkscape:cx="12"
     inkscape:cy="12"
     inkscape:window-x="0"
     inkscape:window-y="27"
     inkscape:window-maximized="0"
     inkscape:current-layer="svg6" />
  <title
     id="title2">Twitter icon</title>
  <path
     d="M23.953 4.57a10 10 0 01-2.825.775 4.958 4.958 0 002.163-2.723c-.951.555-2.005.959-3.127 1.184a4.92 4.92 0 00-8.384 4.482C7.69 8.095 4.067 6.13 1.64 3.162a4.822 4.822 0 00-.666 2.475c0 1.71.87 3.213 2.188 4.096a4.904 4.904 0 01-2.228-.616v.06a4.923 4.923 0 003.946 4.827 4.996 4.996 0 01-2.212.085 4.936 4.936 0 004.604 3.417 9.867 9.867 0 01-6.102 2.105c-.39 0-.779-.023-1.17-.067a13.995 13.995 0 007.557 2.209c9.053 0 13.998-7.496 13.998-13.985 0-.21 0-.42-.015-.63A9.935 9.935 0 0024 4.59z"
     id="path4" />
  <path
     style="opacity:1;fill:#a9f2ff;fill-opacity:1;fill-rule:evenodd;stroke:#ccccff;stroke-width:0.10169491;stroke-opacity:1"
     d="M 6.5288136,21.643713 C 4.6211273,21.521955 2.9515841,21.055044 1.1898305,20.150594 L 0.27457627,19.68072 1.4949153,19.616601 c 1.974813,-0.103758 3.5148252,-0.57765 4.9830508,-1.533383 L 7.2915254,17.553636 6.8338983,17.461871 C 5.0964514,17.113473 3.8751405,16.311166 3.1443071,15.038096 2.6516833,14.179974 2.6473265,14.187257 3.6572993,14.180468 4.1459541,14.177183 4.6335283,14.125304 4.7407974,14.065179 4.91622,13.966854 4.9008808,13.948289 4.588255,13.880565 4.0324024,13.760149 3.0927013,13.244122 2.5883947,12.782363 1.7076805,11.975954 1.1870845,10.933983 0.996836,9.5968642 L 0.93706529,9.1767793 1.5210751,9.4123255 C 1.8422804,9.5418759 2.3472509,9.67986 2.6432319,9.7189568 L 3.1813791,9.790042 2.5292598,9.1379227 C 1.4278093,8.0364722 0.97967475,6.8767148 1.0602544,5.3361851 1.0976498,4.6212571 1.1704809,4.2715134 1.374983,3.8248221 L 1.6410571,3.2436399 2.330698,3.9749457 c 2.3019202,2.4409916 5.3252213,3.9103285 8.885248,4.3182678 l 0.568489,0.065143 -0.0483,-0.8343093 c -0.05751,-0.9933904 0.09213,-1.75345 0.507797,-2.5792838 0.807876,-1.6050661 2.461299,-2.615488 4.291651,-2.6226669 1.18523,-0.00465 2.091353,0.30642 3.111872,1.0682936 0.375043,0.2799908 0.641267,0.4068546 0.808043,0.3850569 0.374075,-0.048892 1.940865,-0.6127062 2.331892,-0.8391387 0.188829,-0.1093454 0.359988,-0.1821477 0.380352,-0.1617829 0.02037,0.020365 -0.08189,0.2756584 -0.227229,0.5673192 -0.295424,0.5928395 -1.097867,1.5205167 -1.502629,1.7371386 -0.676443,0.3620211 -0.03981,0.3395844 1.260418,-0.044421 0.419492,-0.1238914 0.842797,-0.2597045 0.940678,-0.3018068 0.09788,-0.042102 0.177364,-0.037332 0.176629,0.010602 -0.0025,0.1600892 -1.160972,1.4396794 -1.738864,1.9205905 l -0.570711,0.4749341 -0.06,1.3373387 c -0.223584,4.9831983 -3.16945,9.5840273 -7.547602,11.7877813 -2.167906,1.091221 -4.639565,1.553956 -7.3696194,1.379711 z"
     id="path822"
     inkscape:connector-curvature="0" />
</svg>
