<?xml version="1.0" encoding="UTF-8" standalone="no"?>
<svg
   xmlns:dc="http://purl.org/dc/elements/1.1/"
   xmlns:cc="http://creativecommons.org/ns#"
   xmlns:rdf="http://www.w3.org/1999/02/22-rdf-syntax-ns#"
   xmlns:svg="http://www.w3.org/2000/svg"
   xmlns="http://www.w3.org/2000/svg"
   xmlns:sodipodi="http://sodipodi.sourceforge.net/DTD/sodipodi-0.dtd"
   xmlns:inkscape="http://www.inkscape.org/namespaces/inkscape"
   role="img"
   viewBox="0 0 24 24"
   version="1.1"
   id="svg6"
   sodipodi:docname="whatsapp.svg"
   inkscape:version="0.92.5 (2060ec1f9f, 2020-04-08)">
  <metadata
     id="metadata12">
    <rdf:RDF>
      <cc:Work
         rdf:about="">
        <dc:format>image/svg+xml</dc:format>
        <dc:type
           rdf:resource="http://purl.org/dc/dcmitype/StillImage" />
      </cc:Work>
    </rdf:RDF>
  </metadata>
  <defs
     id="defs10" />
  <sodipodi:namedview
     pagecolor="#ffffff"
     bordercolor="#666666"
     borderopacity="1"
     objecttolerance="10"
     gridtolerance="10"
     guidetolerance="10"
     inkscape:pageopacity="0"
     inkscape:pageshadow="2"
     inkscape:window-width="852"
     inkscape:window-height="480"
     id="namedview8"
     showgrid="false"
     inkscape:zoom="9.8333333"
     inkscape:cx="12"
     inkscape:cy="12"
     inkscape:window-x="0"
     inkscape:window-y="27"
     inkscape:window-maximized="0"
     inkscape:current-layer="svg6" />
  <title
     id="title2">WhatsApp icon</title>
  <path
     d="M17.472 14.382c-.297-.149-1.758-.867-2.03-.967-.273-.099-.471-.148-.67.15-.197.297-.767.966-.94 1.164-.173.199-.347.223-.644.075-.297-.15-1.255-.463-2.39-1.475-.883-.788-1.48-1.761-1.653-2.059-.173-.297-.018-.458.13-.606.134-.133.298-.347.446-.52.149-.174.198-.298.298-.497.099-.198.05-.371-.025-.52-.075-.149-.669-1.612-.916-2.207-.242-.579-.487-.5-.669-.51-.173-.008-.371-.01-.57-.01-.198 0-.52.074-.792.372-.272.297-1.04 1.016-1.04 2.479 0 1.462 1.065 2.875 1.213 3.074.149.198 2.096 3.2 5.077 4.487.709.306 1.262.489 1.694.625.712.227 1.36.195 1.871.118.571-.085 1.758-.719 2.006-1.413.248-.694.248-1.289.173-1.413-.074-.124-.272-.198-.57-.347m-5.421 7.403h-.004a9.87 9.87 0 01-5.031-1.378l-.361-.214-3.741.982.998-3.648-.235-.374a9.86 9.86 0 01-1.51-5.26c.001-5.45 4.436-9.884 9.888-9.884 2.64 0 5.122 1.03 6.988 2.898a9.825 9.825 0 012.893 6.994c-.003 5.45-4.437 9.884-9.885 9.884m8.413-18.297A11.815 11.815 0 0012.05 0C5.495 0 .16 5.335.157 11.892c0 2.096.547 4.142 1.588 5.945L.057 24l6.305-1.654a11.882 11.882 0 005.683 1.448h.005c6.554 0 11.89-5.335 11.893-11.893a11.821 11.821 0 00-3.48-8.413Z"
     id="path4" />
  <path
     style="opacity:1;fill:#a9f2ff;fill-opacity:1;fill-rule:evenodd;stroke:#ccccff;stroke-width:0.10169491;stroke-opacity:1"
     d="m 0.14831782,23.771186 c 0.0264244,-0.06992 0.40249165,-1.423289 0.83570496,-3.007498 L 1.7716835,17.883308 1.3637559,17.000977 C -0.44762876,13.083019 -0.10874218,8.7585981 2.2896111,5.1864407 2.9354023,4.2245857 4.4254935,2.7380627 5.3776306,2.1058157 11.503577,-1.9619921 19.590508,0.23793598 22.746603,6.8307835 25.177635,11.90903 23.654691,17.994772 19.099337,21.405392 16.785586,23.137709 13.953832,23.933619 11.00339,23.680883 9.6871613,23.568135 8.2933168,23.206566 7.200227,22.694327 L 6.3707094,22.305601 3.3734903,23.096468 c -1.6484705,0.434977 -3.05931861,0.793335 -3.13521797,0.796353 -0.0758994,0.003 -0.1163789,-0.05172 -0.0899545,-0.121635 z M 13.850847,21.649822 C 15.31243,21.379247 16.813939,20.702195 18.097689,19.73486 21.481051,17.185421 22.837548,12.531419 21.369835,8.5084628 20.199903,5.3017141 17.441269,2.9018706 14.095724,2.1804283 12.840972,1.9098503 10.900688,1.9474209 9.6801884,2.2659282 6.1693123,3.1821431 3.5720077,5.6928443 2.4996573,9.2070347 2.2436169,10.046102 2.221355,10.256215 2.2198986,11.847458 c -0.00134,1.465709 0.03204,1.849974 0.2193459,2.524939 0.2494112,0.898765 0.6241079,1.786666 1.1023892,2.612279 l 0.3249592,0.560947 -0.4862177,1.778036 c -0.3249733,1.188385 -0.4474316,1.787509 -0.3692618,1.806601 0.064326,0.01571 0.9000727,-0.177556 1.8572153,-0.429482 l 1.7402592,-0.458048 0.965196,0.491411 c 1.9436814,0.989588 4.1440031,1.310566 6.2770631,0.915681 z"
     id="path822"
     inkscape:connector-curvature="0" />
  <path
     style="opacity:1;fill:#a9f2ff;fill-opacity:1;fill-rule:evenodd;stroke:#ccccff;stroke-width:0.10169491;stroke-opacity:1"
     d="M 14.205908,17.448611 C 11.434195,16.666418 9.4393779,15.239094 7.5204221,12.665036 6.0645853,10.7122 5.7120096,9.1994397 6.381689,7.7791926 6.5136771,7.4992739 6.8037885,7.0924131 7.0263811,6.8750573 7.3615878,6.5477366 7.5192517,6.4713942 7.9444018,6.4305427 8.3032908,6.396058 8.52921,6.4280696 8.695388,6.5369536 c 0.2711644,0.1776738 1.2910527,2.498519 1.2910527,2.9379038 0,0.1680398 -0.1719783,0.4803315 -0.4576271,0.8309956 -0.251695,0.308982 -0.4576272,0.64881 -0.4576272,0.755175 0,0.247699 0.6959345,1.253843 1.3064296,1.888764 0.91972,0.956519 2.808885,2.094815 3.246257,1.955999 0.10272,-0.0326 0.436065,-0.379039 0.740767,-0.769861 0.424013,-0.543852 0.613658,-0.710361 0.808241,-0.709634 0.139831,5.18e-4 0.826272,0.286175 1.525424,0.634784 l 1.271187,0.633835 -0.01017,0.6413 c -0.0085,0.534196 -0.05942,0.711117 -0.305085,1.059341 -0.646906,0.916983 -2.22395,1.398583 -3.448331,1.053055 z"
     id="path824"
     inkscape:connector-curvature="0" />
</svg>
